<?xml version="1.0" encoding="UTF-8" standalone="no"?>
<svg
   width="24"
   height="24"
   fill-rule="evenodd"
   clip-rule="evenodd"
   version="1.1"
   id="svg4"
   sodipodi:docname="icon-inkscape.svg"
   inkscape:version="1.2.1 (9c6d41e410, 2022-07-14, custom)"
   xmlns:inkscape="http://www.inkscape.org/namespaces/inkscape"
   xmlns:sodipodi="http://sodipodi.sourceforge.net/DTD/sodipodi-0.dtd"
   xmlns="http://www.w3.org/2000/svg"
   xmlns:svg="http://www.w3.org/2000/svg">
  <defs
     id="defs8" />
  <sodipodi:namedview
     id="namedview6"
     pagecolor="#ffffff"
     bordercolor="#000000"
     borderopacity="0.25"
     inkscape:showpageshadow="2"
     inkscape:pageopacity="0.0"
     inkscape:pagecheckerboard="0"
     inkscape:deskcolor="#d1d1d1"
     showgrid="false"
     showguides="true"
     inkscape:zoom="26.457579"
     inkscape:cx="8.6553649"
     inkscape:cy="11.414499"
     inkscape:window-width="1920"
     inkscape:window-height="1013"
     inkscape:window-x="1920"
     inkscape:window-y="0"
     inkscape:window-maximized="1"
     inkscape:current-layer="svg4">
    <sodipodi:guide
       position="-3.2071269,7.1091314"
       orientation="1,0"
       id="guide3912"
       inkscape:locked="false" />
  </sodipodi:namedview>
  <circle
     style="fill:#ffffff;stroke-width:5.09304;-inkscape-stroke:none;stop-color:#000000;fill-opacity:1"
     id="path340"
     cx="12"
     cy="12"
     r="12" />
  <path
     d="M 15.997842,20.235899 H 5.1367512 V 3.7641014 h 6.9929638 c 2.17016,0 6.733534,4.9573247 6.733534,6.5983276 v 6.911978 l -1.37265,-1.37265 v -4.960756 c 0,-2.8187366 -4.117949,-1.6863005 -4.117949,-1.6863005 0,0 1.041154,-4.1179493 -1.810526,-4.1179493 H 6.509401 V 18.863249 h 8.115791 z m -1.390494,-3.334167 c -0.548374,0.371989 -1.209304,0.588867 -1.921023,0.588867 -1.894257,0 -3.4316245,-1.537367 -3.4316245,-3.431625 0,-1.894256 1.5373675,-3.431624 3.4316245,-3.431624 1.894257,0 3.431624,1.537368 3.431624,3.431624 0,0.686326 -0.201779,1.32598 -0.549746,1.862686 l 3.295046,3.343775 -0.970463,0.970464 z M 12.686325,12 c 1.136554,0 2.058975,0.92242 2.058975,2.058974 0,1.136555 -0.922421,2.058975 -2.058975,2.058975 -1.136555,0 -2.058975,-0.92242 -2.058975,-2.058975 C 10.62735,12.92242 11.54977,12 12.686325,12 Z"
     id="path2"
     style="fill:#1040e2;fill-opacity:1;stroke-width:0.686325" />
</svg>
